<svg width="1550" height="144" viewBox="0 0 1550 144" fill="none" xmlns="http://www.w3.org/2000/svg">
<g clip-path="url(#clip0_23_19)">
<path d="M110.488 144.109H-0.351562V0.359375H110.488C123.281 0.359375 135 3.48438 145.547 9.83203C156.191 16.1797 164.688 24.6758 170.938 35.2227C177.285 45.8672 180.41 57.5859 180.41 70.3789V74.0898C180.41 86.9805 177.285 98.6992 170.938 109.246C164.688 119.891 156.191 128.289 145.547 134.637C135 140.984 123.281 144.109 110.488 144.109ZM110.488 111.883C117.324 111.883 123.672 110.125 129.434 106.707C135.098 103.289 139.688 98.7969 143.105 93.0352C146.523 87.3711 148.184 81.0234 148.184 74.0898V70.3789C148.184 63.4453 146.523 57.0977 143.105 51.4336C139.688 45.6719 135.098 41.1797 129.434 37.7617C123.672 34.3438 117.324 32.5859 110.488 32.5859H31.875V111.883H110.488ZM376.895 144.891H266.152C253.262 144.891 241.543 141.766 230.996 135.418C220.352 129.07 211.953 120.672 205.605 110.027C199.258 99.3828 196.133 87.6641 196.133 74.8711V71.1602C196.133 58.2695 199.258 46.6484 205.605 36.0039C211.953 25.3594 220.352 16.9609 230.996 10.6133C241.543 4.26562 253.262 1.14062 266.152 1.14062H306.875C319.766 1.14062 331.484 4.26562 342.031 10.6133C352.676 16.9609 361.074 25.3594 367.422 36.0039C373.77 46.6484 376.895 58.2695 376.895 71.1602V89.0312H231.191C234.121 96.0625 238.711 101.727 244.961 106.121C251.211 110.418 258.242 112.664 266.152 112.664H344.668L376.895 144.891ZM341.348 56.1211C338.32 49.0898 333.438 43.6211 326.895 39.5195C320.352 35.418 313.711 33.3672 306.875 33.3672H266.152C258.438 33.3672 251.504 35.5156 245.352 39.7148C239.199 43.9141 234.609 49.3828 231.582 56.1211H341.348ZM501.504 144.109H460.684C447.891 144.109 436.172 140.984 425.527 134.637C414.98 128.289 406.484 119.891 400.137 109.246C393.887 98.6992 390.664 86.9805 390.664 74.0898V70.3789C390.664 57.5859 393.887 45.8672 400.137 35.2227C406.484 24.6758 414.98 16.1797 425.527 9.83203C436.172 3.48438 447.891 0.359375 460.684 0.359375H501.504C512.637 0.359375 522.891 2.80078 532.461 7.58594C541.934 12.4688 549.941 19.0117 556.484 27.2148C563.027 35.5156 567.52 44.8906 569.863 55.5352H536.172C533.145 48.6992 528.555 43.1328 522.305 38.9336C516.152 34.7344 509.219 32.5859 501.504 32.5859H460.684C453.75 32.5859 447.5 34.3438 441.738 37.7617C436.074 41.1797 431.484 45.6719 428.066 51.4336C424.648 57.0977 422.988 63.4453 422.988 70.3789V74.0898C422.988 81.0234 424.648 87.3711 428.066 93.0352C431.484 98.7969 436.074 103.289 441.738 106.707C447.5 110.125 453.75 111.883 460.684 111.883H501.504C509.414 111.883 516.445 109.637 522.695 105.242C528.945 100.848 533.535 95.1836 536.465 88.1523H570.059C567.812 98.7969 563.418 108.367 556.875 116.766C550.332 125.164 542.324 131.805 532.656 136.785C523.086 141.668 512.734 144.109 501.504 144.109ZM695.547 144.109H654.824C641.934 144.109 630.215 140.984 619.668 134.637C609.023 128.289 600.625 119.891 594.277 109.246C587.93 98.6992 584.805 86.9805 584.805 74.0898V70.3789C584.805 57.5859 587.93 45.8672 594.277 35.2227C600.625 24.6758 609.023 16.1797 619.668 9.83203C630.215 3.48438 641.934 0.359375 654.824 0.359375H695.547C708.438 0.359375 720.156 3.48438 730.703 9.83203C741.348 16.1797 749.746 24.6758 756.094 35.2227C762.441 45.8672 765.566 57.5859 765.566 70.3789V74.0898C765.566 86.9805 762.441 98.6992 756.094 109.246C749.746 119.891 741.348 128.289 730.703 134.637C720.156 140.984 708.438 144.109 695.547 144.109ZM695.547 111.883C702.48 111.883 708.828 110.125 714.492 106.707C720.254 103.289 724.746 98.7969 728.164 93.0352C731.582 87.3711 733.34 81.0234 733.34 74.0898V70.3789C733.34 63.4453 731.582 57.0977 728.164 51.4336C724.746 45.6719 720.254 41.1797 714.492 37.7617C708.828 34.3438 702.48 32.5859 695.547 32.5859H654.824C647.891 32.5859 641.543 34.3438 635.879 37.7617C630.117 41.1797 625.527 45.6719 622.109 51.4336C618.789 57.0977 617.031 63.4453 617.031 70.3789V74.0898C617.031 81.0234 618.789 87.3711 622.109 93.0352C625.527 98.7969 630.117 103.289 635.879 106.707C641.543 110.125 647.891 111.883 654.824 111.883H695.547ZM891.152 144.109H780.312V0.359375H891.152C903.945 0.359375 915.664 3.48438 926.211 9.83203C936.855 16.1797 945.352 24.6758 951.602 35.2227C957.949 45.8672 961.074 57.5859 961.074 70.3789V74.0898C961.074 86.9805 957.949 98.6992 951.602 109.246C945.352 119.891 936.855 128.289 926.211 134.637C915.664 140.984 903.945 144.109 891.152 144.109ZM891.152 111.883C897.988 111.883 904.336 110.125 910.098 106.707C915.762 103.289 920.352 98.7969 923.77 93.0352C927.188 87.3711 928.848 81.0234 928.848 74.0898V70.3789C928.848 63.4453 927.188 57.0977 923.77 51.4336C920.352 45.6719 915.762 41.1797 910.098 37.7617C904.336 34.3438 897.988 32.5859 891.152 32.5859H812.539V111.883H891.152ZM1156.68 144.012H1124.45V88.0547H1008.14V144.012H975.918V70.2812C975.918 57.3906 979.043 45.7695 985.391 35.125C991.738 24.4805 1000.14 16.082 1010.78 9.73438C1021.33 3.38672 1033.05 0.261719 1045.94 0.261719H1086.66C1099.55 0.261719 1111.27 3.38672 1121.82 9.73438C1132.46 16.082 1140.96 24.4805 1147.21 35.125C1153.55 45.7695 1156.68 57.3906 1156.68 70.2812V144.012ZM1121.33 55.4375C1118.3 48.6016 1113.71 43.0352 1107.56 38.8359C1101.41 34.6367 1094.38 32.4883 1086.66 32.4883H1045.94C1038.22 32.4883 1031.29 34.6367 1025.04 38.8359C1018.89 43.0352 1014.3 48.6016 1011.27 55.4375H1121.33ZM1297.21 88.0547V88.1523H1289.49L1337.93 143.816H1292.91L1217.91 55.3398C1234.51 55.3398 1251.02 55.3398 1267.52 55.3398H1291.05H1297.21H1308.14C1311.27 55.3398 1313.91 54.2656 1316.15 52.0195C1318.4 49.7734 1319.57 47.0391 1319.57 44.0117C1319.57 40.8867 1318.4 38.25 1316.15 36.0039C1313.91 33.7578 1311.27 32.5859 1308.14 32.5859H1204.14V55.3398V88.0547L1204.34 87.8594V88.0547H1204.24V143.816H1171.33V32.4883V0.0664062V-0.128906C1171.33 -0.128906 1171.62 -0.128906 1172.01 -0.128906H1308.14C1316.25 -0.128906 1323.57 1.92188 1330.31 5.82812C1336.95 9.83203 1342.32 15.2031 1346.23 21.8438C1350.23 28.4844 1352.19 35.9062 1352.19 44.0117C1352.19 52.0195 1350.23 59.4414 1346.23 66.082C1342.32 72.8203 1336.95 78.0938 1330.31 82.0977C1323.57 86.1016 1316.25 88.0547 1308.14 88.0547H1297.21Z" fill="url(#paint0_linear_23_19)"/>
<path d="M1432.93 12.6465L1550.37 61.4746V86.377L1432.93 135.449V103.223L1505.44 74.0479L1432.93 44.9951V12.6465Z" fill="url(#paint1_linear_23_19)"/>
</g>
<defs>
<linearGradient id="paint0_linear_23_19" x1="-0.584647" y1="79.1167" x2="1371.49" y2="87.1956" gradientUnits="userSpaceOnUse">
<stop stop-color="#632D91"/>
<stop offset="1" stop-color="#333192"/>
</linearGradient>
<linearGradient id="paint1_linear_23_19" x1="1426.49" y1="51.0837" x2="1568.37" y2="51.1637" gradientUnits="userSpaceOnUse">
<stop stop-color="#632D91"/>
<stop offset="1" stop-color="#333192"/>
</linearGradient>
<clipPath id="clip0_23_19">
<rect width="1550" height="144" fill="white"/>
</clipPath>
</defs>
</svg>
