<svg width="640" height="534" viewBox="0 0 640 534" fill="none" xmlns="http://www.w3.org/2000/svg">
<g clip-path="url(#clip0_10_21)">
<path d="M0 534.415C129 219.415 405.5 132.415 404 129.415C402.5 126.415 398.5 117.915 398.5 117.915L429 93.9152C403 83.4152 378 109.915 376.5 113.915C380 58.4152 401 36.4152 455.5 42.9152C496.719 15.1537 525.958 7.90319 589.499 10.4152C607.865 0.129542 623.137 -3.19041 639.499 3.41514C639.649 29.5126 633.786 39.9917 616.499 53.9152C611.678 106.641 595.936 129.825 552.999 163.915C540.44 222.967 512.445 225.69 470.5 230.915C488.683 211.208 496.812 199.136 495 183.915L469 208.915L449.5 195.415C347.034 288.477 304.082 424.653 276.499 534.415H0Z" fill="white"/>
<path d="M193 534.5C236 413.999 295 288 431.5 179L449.5 195.5C328 310.5 296 463.5 276.5 534.5L193 534.5Z" fill="#BDBDBD"/>
<path d="M404 129C199.5 214.499 68.5 366.499 0 534H78.5C162.257 363.142 225.595 275.083 419 156L404 129Z" fill="#BDBDBD"/>
<path d="M410 143C375.724 159.875 367.127 180.897 358 211C401.866 216.584 418.813 205.659 443.5 189.5C427.711 171.164 419.982 161.026 410 143Z" fill="black"/>
<circle cx="535" cy="83" r="31" fill="black"/>
<circle cx="449.5" cy="63.5" r="11.5" transform="rotate(42 449.5 63.5)" fill="black"/>
<circle cx="471.5" cy="132.5" r="11.5" transform="rotate(42 471.5 132.5)" fill="black"/>
<circle cx="530.5" cy="166.5" r="11.5" transform="rotate(42 530.5 166.5)" fill="black"/>
</g>
<defs>
<clipPath id="clip0_10_21">
<rect width="640" height="534" fill="white"/>
</clipPath>
</defs>
</svg>
