<svg width="640" height="534" viewBox="0 0 640 534" fill="none" xmlns="http://www.w3.org/2000/svg">
<g clip-path="url(#clip0_19_5)">
<path d="M0 534.415C129 219.415 405.5 132.415 404 129.415C402.5 126.415 398.5 117.915 398.5 117.915L429 93.9152C403 83.4152 378 109.915 376.5 113.915C380 58.4152 401 36.4152 455.5 42.9152C496.719 15.1537 525.958 7.90319 589.499 10.4152C607.865 0.129542 623.137 -3.19041 639.499 3.41514C639.649 29.5126 633.786 39.9917 616.499 53.9152C611.678 106.641 595.936 129.825 552.999 163.915C540.44 222.967 512.445 225.69 470.5 230.915C488.683 211.208 496.812 199.136 495 183.915L469 208.915L449.5 195.415C347.034 288.477 304.082 424.653 276.499 534.415H0Z" fill="url(#paint0_linear_19_5)"/>
<path d="M193 534.5C236 414 295 288 431.5 179L449.5 195.5C328 310.5 296 463.5 276.5 534.5L193 534.5Z" fill="url(#paint1_linear_19_5)"/>
<path d="M404 129C199.5 214.499 68.5 366.499 0 534H78.5C162.257 363.142 225.595 275.083 419 156L404 129Z" fill="url(#paint2_linear_19_5)"/>
<circle cx="535" cy="83" r="29" fill="#48B9EE" stroke="#FFA800" stroke-width="4"/>
<circle cx="452.5" cy="82.5" r="10.5" transform="rotate(42 452.5 82.5)" fill="#48B9EE" stroke="#FFA800" stroke-width="2"/>
<circle cx="471.5" cy="132.5" r="10.5" transform="rotate(42 471.5 132.5)" fill="#48B9EE" stroke="#FFA800" stroke-width="2"/>
<circle cx="511.5" cy="170.5" r="10.5" transform="rotate(42 511.5 170.5)" fill="#48B9EE" stroke="#FFA800" stroke-width="2"/>
<path d="M455.5 43.0001C396.069 36.8758 382.567 56.9123 376.5 114C392.532 96.9061 405.087 88.0028 429 94.0001C429 89.5091 429 86.9911 429 82.5001C433.093 66.2609 439.75 57.7248 455.5 43.0001Z" fill="#FFDB00"/>
<path d="M470.5 231C484.24 216.385 490.713 209.88 495 184H508.5C525.362 181.366 535.149 176.545 553 164C541.403 216.165 520.347 227.067 470.5 231Z" fill="#FFDB00"/>
<path d="M431.5 179L416 158C248.926 254.351 174.654 336.103 78.5 534H193C261.301 363.826 309.361 280.814 431.5 179Z" fill="url(#paint3_linear_19_5)"/>
<path d="M398.5 118L429 94C439.602 138.773 455.248 157.721 495 184L469 209C433.503 186.482 416.831 168.587 398.5 118Z" fill="#FFDB00"/>
<path d="M409 143C374.724 159.875 366.127 180.897 357 211C400.866 216.584 417.813 205.659 442.5 189.5C426.711 171.164 418.982 161.026 409 143Z" fill="#E3AED8"/>
<path d="M616.5 53.9999L589.5 10.4999C611.417 -1.15372 622.248 -2.21188 639.5 3.49991C639.834 32.036 631.561 40.0308 616.5 53.9999Z" fill="#FF00E6"/>
</g>
<defs>
<linearGradient id="paint0_linear_19_5" x1="654" y1="-14" x2="433" y2="167" gradientUnits="userSpaceOnUse">
<stop stop-color="#7E53B6"/>
<stop offset="0.510417" stop-color="#CEA8FF"/>
<stop offset="1" stop-color="#7E53B6"/>
</linearGradient>
<linearGradient id="paint1_linear_19_5" x1="441" y1="188" x2="219" y2="560.5" gradientUnits="userSpaceOnUse">
<stop stop-color="#C6015B"/>
<stop offset="0.65625" stop-color="#F8CA88" stop-opacity="0.78"/>
<stop offset="1" stop-color="#F8CA88"/>
</linearGradient>
<linearGradient id="paint2_linear_19_5" x1="419" y1="129" x2="17.5" y2="545.5" gradientUnits="userSpaceOnUse">
<stop stop-color="#C6015B"/>
<stop offset="0.552083" stop-color="#F8CA88" stop-opacity="0.71"/>
<stop offset="1" stop-color="#F8CA88"/>
</linearGradient>
<linearGradient id="paint3_linear_19_5" x1="432" y1="158" x2="126.5" y2="534" gradientUnits="userSpaceOnUse">
<stop stop-color="#FF54CF" stop-opacity="0.72"/>
<stop offset="1" stop-color="#FFE5D1"/>
</linearGradient>
<clipPath id="clip0_19_5">
<rect width="640" height="534" fill="white"/>
</clipPath>
</defs>
</svg>
